<?xml version="1.0" encoding="UTF-8"?><svg id="Capa_1" xmlns="http://www.w3.org/2000/svg" viewBox="0 0 1204.79 3670.6" preserveAspectRatio="none"><defs><style>.cls-1{fill:#a496e0;}.cls-2{fill:#75d5ef;}</style></defs><path class="cls-1" d="M3.94,1835.65v.25c1.81-.08,3.63-.16,5.44-.25H3.94Z"/><path class="cls-1" d="M3.94,1835.65v-.25c1.81,.08,3.63,.16,5.44,.25H3.94Z"/><path class="cls-2" d="M0-9.8V165.71c3.75-.63,7.52-1.07,11.23-1.47,257.7-27.9,531.05-142.22,778.4-40.18,93.54,38.59,184.8,103.02,244.51,208.13,59.71,105.11,81.51,256.52,35.38,373.56-32.36,82.1-94.18,141.71-113.54,231.04-22.52,103.91,19.07,219.12-4.93,322.41-33.19,142.84-48.9,192.5-114.11,313.3-30.56,56.6-17.51,115.3-3.83,179.52h0c2.4,11.27,4.82,22.71,7.02,34.33,14.69,113.54,115.29,155.98,155.12,229.8,65.22,120.88-27.39,251.78,5.8,394.71,24,103.35-67.59,218.64-45.07,322.6,19.36,89.38,81.19,149.03,113.54,231.17,46.13,117.1,24.33,268.6-35.38,373.78-59.71,105.18-150.96,169.64-244.51,208.25-247.35,102.09-520.7-12.3-778.4-40.21-3.71-.4-7.48-.84-11.23-1.47v175.61H1204.79V-9.8H0Z"/></svg>