<?xml version="1.0" encoding="utf-8"?>
<!-- Generator: Adobe Illustrator 26.3.1, SVG Export Plug-In . SVG Version: 6.00 Build 0)  -->
<svg version="1.1" id="Layer_1" xmlns="http://www.w3.org/2000/svg" xmlns:xlink="http://www.w3.org/1999/xlink" x="0px" y="0px"
	 viewBox="0 0 500 500" style="enable-background:new 0 0 500 500;" xml:space="preserve" preserveAspectRatio="none">
<style type="text/css">
	.st0{fill:#96E3BD;}
	.st1{fill:#9FF0C8;}
	.st2{fill:#9BEAC3;}
</style>
<path class="st0" d="M227.5,433.3c-21.1,1.9-22.4,7.8-62.6,9.6c-49.2,2.2-102.3-30.5-122.9-77.6C28.3,325,17.7,282.8,16.8,240
	c0.6-30.6,16.9-58.6,35.6-81.9c23.4-29.4,57.7-46.1,85.2-70.9c17.5-15.2,30.8-36,52.4-46c33.4-14.4,70.3-20,107.2-15.8
	c40.2,4.5,66.8,46.8,98.2,72.3c33.2,29,74.1,55.7,84.4,101.3c12.6,35.8,2.7,73.6,3,110.4c0.1,25.4,6.4,51.3,0,76.3
	c-7.9,23.4-30.5,37.8-49.7,51.6c-35.4,22.1-80,20.8-118.6,8.3C286.6,435.5,257.1,429.6,227.5,433.3L227.5,433.3z"/>
<path class="st1" d="M53.6,179.6c7.7-15,22.4-23.7,33.5-35.8c9.8-9.2,14.5-21.9,20-33.8c27.9-44.5,57.5-55.2,107.6-42.8
	C241,71,267.3,64,292.1,55.9c20.4-8.2,43-10,63.9-2.5c52.7,19.2,35.7,56.8,63,92.4c22.3,30.1,59.7,59.6,47.4,101.5
	c-9.8,34.1-31.8,62.9-41.9,97c-14.9,45.6-15.6,96.5-67.8,115.8c-32.5,14.5-71,14.9-103.8,0.9c-18.9-7.9-35.4-20.6-53.8-29.7
	c-31.6-17-71.8-10.5-100.8-33.1c-16.6-13-23.3-35-27.2-55c-1.4-11.5-1.2-23.3-3.8-34.6c-5.5-26.1-24.1-46.7-32.7-71.5
	C31,216.1,43.3,196.8,53.6,179.6L53.6,179.6z"/>
<path class="st2" d="M259.8,70.5c33.3,1,65.7,12.4,96.7,23.7c37.7,18.7,61.2,60.7,62.2,102.2c1.1,24.1,2.4,48.3,10.7,71.1
	c9.8,31.8,7.1,59.7-18.6,83c-25.5,24.5-31.9,63-61.3,84c-40.3,28.1-87.7-0.3-129.1-10.5c-16.7-3.3-33.6-6.1-50.7-5.3
	c-14.7-0.2-30.1,2-44.1-3.8c-18-10-29.7-29.6-38.8-47.6c-13.1-31,6.9-65.2,2.6-97.6C88,245.2,72,224.8,69.5,200.7
	c-9.2-57.1,32.8-100.9,88-106.9C192.3,88.6,224.4,71.5,259.8,70.5L259.8,70.5z"/>
<path class="st1" d="M387.2,237c-3.8,14.1-10.6,27.2-12.1,41.8c-1.8,14-1.5,28.3-2.3,42.4c-0.2,16.1-2.1,33-12.5,46
	c-16.6,22.2-43.8,38.2-72.1,33.4c-22.1-3.2-43.9-8.1-66.1-10.8c-19.1-2.7-39.1-2.8-56.6-11.8c-26.7-15.6-50.2-49.2-53.3-80.2
	c-1-10.5-1.3-21.2,0.8-31.6c2.6-14.4,8.2-28.1,9.8-42.7c2.1-19-1.5-40.3,11.1-56.5c20-26.6,52.3-30.8,83-34.7
	c17.2-3.2,31.9-13.9,48.9-18.1c21.7-4.4,42.8,7.1,59.5,19.9c13,11.2,28,19.6,42,29.4c14.3,8.1,21.2,19.9,23.8,35.9
	C392.6,211.9,390.4,224.8,387.2,237L387.2,237z"/>
<path class="st2" d="M352.7,293.5c-0.2,30.7-24.5,55.7-56.1,53.5c-12.1-0.1-24.1-2-36.2-3.2c-12.7-1.8-25.3,2.2-37.9,1.1
	c-23.7-5.8-35-29.7-48.7-47.4c-8.8-10.2-21.4-18.6-22.9-33.1c-1.6-11.3-0.5-23.3,4-33.8c3.3-7,10.7-10.3,16.5-15
	c5.1-4.4,9.8-9.4,12.5-15.7c1.6-3.5,3-7.2,5.7-10c10.2-10.7,26.6-9.7,40.3-10.4c11.7-0.9,23.2-3.2,34.2-7.3
	c14.9-6.2,32.1-7,46.4,1.1c5.9,3.2,12.1,6.2,16.6,11.3c6.2,7.4,11.3,17.2,11.3,27C330.2,263.9,352.9,259.2,352.7,293.5L352.7,293.5z
	"/>
</svg>
