<?xml version="1.0" encoding="utf-8"?>
<!-- Generator: Adobe Illustrator 26.3.1, SVG Export Plug-In . SVG Version: 6.00 Build 0)  -->
<svg version="1.1" id="Layer_1" xmlns="http://www.w3.org/2000/svg" xmlns:xlink="http://www.w3.org/1999/xlink" x="0px" y="0px"
	 viewBox="0 0 1024 1980" style="enable-background:new 0 0 1024 1980;" xml:space="preserve" preserveAspectRatio="none">
<style type="text/css">
	.st0{fill:#A496E0;}
</style>
<path class="st0" d="M955.5,1980h68.5V0H0v1980H955.5z M39.9,857.3C51.4,677.4,39,462.2,77,301.5C126.1,93.9,225.8,62.9,243.6,57.9
	c23-6.4,553.8-149.9,699.1,124.7c67.5,127.5-31.1,205.8,12.4,376c57.8,232.9,35.3,475.3-0.8,694.5c-12.7,88.8-9.8,179-12.5,272
	c-4.5,79.5,32.5,164.6,14.3,236.9c-29.5,92.5-187,169.2-237.2,185.8c-85.8,28.4-160.9,13.3-241.2,15.8c-53,1.7-190.3,1.4-209.5-1.2
	c-142.3-19.3-199.7-236.1-199.3-538.6C65.9,1232.9,32.8,1049.6,39.9,857.3L39.9,857.3z"/>
</svg>
