<?xml version="1.0" encoding="UTF-8"?><svg id="Capa_1" xmlns="http://www.w3.org/2000/svg" viewBox="0 0 1196.92 3683" preserveAspectRatio="none"><defs><style>.cls-1{fill:#fce195;}</style></defs><path class="cls-1" d="M1196.92,1859v-.25c-1.81,.08-3.63,.16-5.44,.25h5.44Z"/><path class="cls-1" d="M0-13V3690H1196.92v-190.74c-59.2,26.74-125.21,26.83-163.33,13.9-112-37.99-116.84-59.85-271.95-70.31-183.62-12.39-278.37,120.41-406.68,71.98-83.69-31.59-136.76-139.93-154.76-230.33-12.67-63.67,6.56-312.43,81.4-459.94,40.97-80.75,55.83-192.24,19.59-328.77-15.85-59.7-73.06-113.84-114.81-221.82-21.07-54.5-102.14-213.13-113.54-376.17-12.41-177.52,186.83-557.42,228.35-716.56,35.66-136.68,21.37-248.02-19.59-328.77-74.84-147.51-94.07-396.27-81.4-459.94,17.99-90.4,71.07-198.75,154.76-230.33,128.31-48.43,223.06,84.37,406.68,71.98,155.11-10.47,159.95-32.33,271.95-70.31,38.12-12.93,104.14-12.84,163.33,13.9V-13H0Z"/><path class="cls-1" d="M1196.92,1858.25v-.25h-5.44c1.81,.08,3.63,.16,5.44,.25Z"/></svg>