<?xml version="1.0" encoding="utf-8"?>
<!-- Generator: Adobe Illustrator 26.3.1, SVG Export Plug-In . SVG Version: 6.00 Build 0)  -->
<svg version="1.1" id="Layer_1" xmlns="http://www.w3.org/2000/svg" xmlns:xlink="http://www.w3.org/1999/xlink" x="0px" y="0px"
	 viewBox="0 0 185 63" style="enable-background:new 0 0 185 63;" xml:space="preserve">
<style type="text/css">
	.st0{fill:#662D91;}
	.st1{fill:#6D6E70;}
	.st2{fill:#58595B;}
	.st3{fill:#A6A8AB;}
	.st4{fill:#29B473;}
	.st5{fill:#D0D2D3;}
	.st6{fill:#231F20;}
	.st7{fill:#BBBDBF;}
	.st8{fill:#808184;}
	.st9{fill:#D6DE23;}
	.st10{fill:#929497;}
	.st11{fill:#F05A28;}
	.st12{fill:#FBB040;}
	.st13{fill:#90278E;}
	.st14{fill:none;}
	.st15{fill:url(#SVGID_1_);}
	.st16{fill:url(#SVGID_00000084521276810405176670000001537222643845718940_);}
	.st17{fill:url(#SVGID_00000098942426225204330390000016371571923609351309_);}
	.st18{fill:url(#SVGID_00000059294862295892194000000014968744063867859896_);}
	.st19{fill:url(#SVGID_00000155118421550650363270000007693320096659430323_);}
	.st20{fill:url(#SVGID_00000025443435527857116710000008378449886703686316_);}
	.st21{fill:url(#SVGID_00000147211261660980099210000005360083899313209474_);}
	.st22{fill:none;stroke:#662D91;stroke-miterlimit:10;}
</style>
<g>
	<g>
		<path class="st0" d="M168.9,12V8.5h-17.2v22.4h-8.8c-2.6,0-4.9-0.9-6.7-2.8s-2.8-4.1-2.8-6.7c0-2.6,0.9-4.8,2.8-6.7
			s4.1-2.8,6.7-2.8c1.8,0,3.5,0.5,5,1.4c0.6,0.4,1.2,0.8,1.7,1.3v-4.4c-2-1.2-4.3-1.9-6.7-1.9c-3.6,0-6.6,1.3-9.1,3.8
			c-2.5,2.5-3.8,5.6-3.8,9.1c0,3.6,1.3,6.6,3.8,9.1c2.5,2.5,5.6,3.8,9.1,3.8h8.8h4.1h13.1v-3.4h-13.1h-0.7v-8.6h13.8v-3.5h-13.8V12
			H168.9z"/>
		<path class="st0" d="M127.4,22.9c1.5-1.6,2.2-3.6,2.2-5.8c0-2.4-0.8-4.4-2.5-6.1c-1.7-1.7-3.7-2.5-6.1-2.5h-8.6v7.8
			c0.5,1.5,0.8,3.1,0.8,4.8s-0.3,3.3-0.8,4.8v8.5h3.4V24c0.2,0.2,0.5,0.3,0.7,0.5l8.6,9.9h4.5l-7.7-8.7
			C124.1,25.4,125.9,24.5,127.4,22.9z M117.4,20.8c-1-1-1.5-2.2-1.5-3.6v-5.2h5.2c1.4,0,2.6,0.5,3.6,1.5c1,1,1.5,2.2,1.5,3.6
			s-0.5,2.6-1.5,3.6s-2.2,1.5-3.6,1.5C119.6,22.3,118.4,21.8,117.4,20.8z"/>
		<path class="st0" d="M83,21c0-0.7,0.1-1.5,0.2-2.2h-7.3V12h10.2c1-1.3,2.2-2.5,3.6-3.4v0H72.5v25.9h3.4V22.3h7.2
			C83.1,21.9,83,21.5,83,21z"/>
		<g>
			<g>
				<path class="st1" d="M23.8,32h0.3v2.4h-0.3c-4.1,0-7.4-3.6-7.4-7.9V7h2.4v7.4c0.3-0.1,0.7-0.1,1.1-0.1h4.3v2.4h-4.3
					c-1.1,0-1.1,0.5-1.1,0.8v9C18.8,29.6,21.1,32,23.8,32z"/>
				<path class="st1" d="M24.6,28.3c0-3.4,3.4-6.1,7.4-6.1c0,0,3.7,0,4.2,0c0.1,0,0.8,0,0.8-0.9v-1.1c0-2-2-3.7-4.7-3.7
					c-1.7,0-3.2,0.7-4.1,1.8l-0.7,1l-1.9-1.4l0.7-1c1.3-1.8,3.6-2.8,6-2.8c3.8,0,7.1,2.8,7.1,6.1v8.2c0,3.4-3.4,6.1-7.4,6.1
					C28,34.4,24.6,31.7,24.6,28.3z M31.9,24.6c-2.7,0-5,1.7-5,3.7c0,2,2.3,3.7,5,3.7c2.7,0,5-1.7,5-3.7v-3.8
					c-0.4,0.1-0.8,0.1-0.9,0.1L31.9,24.6z"/>
				<path class="st1" d="M40,30.6l1.9-1.5c1.5,1.9,2.3,2.8,5.7,2.8c3,0,4.7-1.4,4.7-3.6c0-2.1-2.3-2.6-4.9-3.3
					c-3.7-0.9-6.7-2.2-6.7-5.7c0-3.3,2.5-5.4,6.4-5.4c2.4,0,4.6,0.8,6.9,3.8L52,19.2c-1.9-2.5-3.5-2.9-5.1-2.9
					c-2.4,0-3.8,1.3-3.8,3.1c0,2.1,2.3,2.7,4.9,3.4c3.5,0.9,6.7,2.1,6.7,5.6c0,3.5-2.8,6.1-7.1,6.1C43.5,34.4,41.8,33,40,30.6z"/>
				<path class="st1" d="M62.2,24.9c-0.8-1-1.2-1.1-1.6-0.7l-1.4,1.2v9h-2.4V7h2.4v15.4l9.1-8.4h3.7l-9.2,8.3
					c0.2-0.1,0.9,0.4,1.5,1.2l8.3,11h-3.1L62.2,24.9z"/>
			</g>
		</g>
		<g>
			<g>
				<path class="st0" d="M18.8,54c-0.7,0-1.2-0.1-1.7-0.3c-0.5-0.2-0.8-0.5-0.9-0.8L16,52.7l0.5-0.4l0.2,0.3
					c0.3,0.4,0.7,0.8,2.1,0.8c1.3,0,2-0.6,2-1.5c0-0.8-0.7-1.1-2.1-1.4c-1.3-0.3-2.6-0.8-2.6-2.1c0-1.3,1-2,2.6-2
					c0.8,0,1.6,0.4,2.1,1l0.2,0.3L20.7,48l-0.2-0.3c-0.4-0.5-1-0.8-1.6-0.8c-1.3,0-2,0.4-2,1.3c0,0.9,0.7,1.1,2.1,1.4
					c0.6,0.1,1.2,0.3,1.7,0.6c0.6,0.3,0.9,0.8,0.9,1.5C21.6,53.3,20.4,54,18.8,54L18.8,54z"/>
				<path class="st0" d="M22.4,51.2c0-1.6,1.1-2.8,2.5-2.8c1.5,0,2.5,1.4,2.5,2.9c0,1.6-1.1,2.9-2.5,2.9
					C23.4,54,22.4,52.6,22.4,51.2z M23.1,51.1c0,1.2,0.8,2.2,1.8,2.2c1,0,1.8-1,1.8-2.2c0-1.2-0.8-2.2-1.8-2.2
					C23.9,49,23.1,49.9,23.1,51.1z"/>
				<path class="st0" d="M28.9,54l0-7.7h0.7l0,1.8c0,0,0,0.2,0.3,0.2h0.4c1.5,0,2.8,1.3,2.8,2.8c0,1.5-1.3,2.8-2.8,2.8L28.9,54z
					 M30.2,53.4c1.2,0,2.1-1,2.1-2.1c0-1.2-1-2.1-2.1-2.1h-0.4c-0.1,0-0.2,0-0.3,0l0,4.3L30.2,53.4z"/>
				<path class="st0" d="M34.3,54l0-3.5c0-1.2,0.9-2.2,2.1-2.2h0.1l0,0.7h-0.1c-0.8,0-1.4,0.7-1.4,1.5l0,3.5L34.3,54z"/>
				<path class="st0" d="M37.2,51.2c0-1.6,1-2.9,2.4-2.9c1.1,0,1.8,0.6,1.8,1.4c0,0.9-0.9,1.5-2.1,1.5l-1.3,0
					c-0.2,0-0.2,0.2-0.2,0.2c0,0.8,0.8,1.8,1.7,1.8c0.6,0,1-0.2,1.4-0.8l0.5,0.4c-0.5,0.6-1,1.1-2,1.1C38.1,54,37.2,52.7,37.2,51.2z
					 M37.9,50.6c0.1,0,0.1,0,0.2,0l1.3,0c0.8,0,1.4-0.4,1.4-0.9c0-0.3-0.3-0.8-1.2-0.8C38.8,49,38.1,49.7,37.9,50.6z"/>
				<path class="st0" d="M45.7,51.2c0-1.6,1-2.9,2.4-2.9c1.1,0,1.8,0.6,1.8,1.4c0,0.9-0.9,1.5-2.1,1.5l-1.3,0
					c-0.2,0-0.2,0.2-0.2,0.2c0,0.8,0.8,1.8,1.7,1.8c0.6,0,1-0.2,1.4-0.8l0.5,0.4c-0.5,0.6-1,1.1-2,1.1C46.7,54,45.7,52.7,45.7,51.2z
					 M46.4,50.6c0.1,0,0.1,0,0.2,0l1.3,0c0.8,0,1.4-0.4,1.4-0.9c0-0.3-0.3-0.8-1.2-0.8C47.3,49,46.6,49.7,46.4,50.6z"/>
				<path class="st0" d="M51.7,46.4h0.7l0,7.7h-0.7L51.7,46.4z"/>
				<path class="st1" d="M61.6,53.4l0,0.7l-4.9,0l0-7.7h0.7l0,7L61.6,53.4z"/>
				<path class="st1" d="M63.4,46.4c0.3,0,0.5,0.2,0.5,0.5c0,0.3-0.2,0.5-0.5,0.5c-0.3,0-0.5-0.2-0.5-0.5
					C62.9,46.6,63.1,46.4,63.4,46.4z M63,48.3l0.7,0l0,5.7H63L63,48.3z"/>
				<path class="st1" d="M65,51.2c0-1.5,1.3-2.8,2.8-2.8h0.4c0.3,0,0.3-0.2,0.3-0.2l0-1.8h0.7l0,7.7l-1.4,0C66.3,54,65,52.8,65,51.2
					z M68.5,49c-0.1,0-0.2,0-0.3,0h-0.4c-1.2,0-2.1,1-2.1,2.1c0,1.2,1,2.1,2.1,2.1h0.7L68.5,49L68.5,49z"/>
				<path class="st1" d="M70.6,51.3c0-1.6,1-2.9,2.4-2.9c1.1,0,1.8,0.6,1.8,1.4c0,0.9-0.9,1.5-2.1,1.5l-1.3,0
					c-0.2,0-0.2,0.2-0.2,0.2c0,0.8,0.8,1.8,1.7,1.8c0.6,0,1-0.2,1.4-0.8l0.5,0.4c-0.5,0.6-1,1.1-2,1.1C71.5,54,70.6,52.7,70.6,51.3z
					 M71.3,50.6c0.1,0,0.1,0,0.2,0l1.3,0c0.8,0,1.4-0.4,1.4-0.9c0-0.3-0.3-0.8-1.2-0.8C72.2,49,71.5,49.7,71.3,50.6z"/>
				<path class="st1" d="M76.2,54l0-3.5c0-1.2,0.9-2.2,2.1-2.2h0.1l0,0.7h-0.1c-0.8,0-1.4,0.7-1.4,1.5l0,3.5H76.2z"/>
				<path class="st1" d="M79.1,52.3c0-1,1-1.7,2.1-1.7c0,0,1,0,1.2,0c0,0,0.2,0,0.2-0.3l0-0.3c0-0.6-0.6-1-1.3-1
					c-0.5,0-0.9,0.2-1.1,0.5l-0.2,0.3l-0.5-0.4l0.2-0.3c0.4-0.5,1-0.8,1.7-0.8c1.1,0,2,0.8,2,1.7l0,2.3c0,1-1,1.7-2.1,1.7
					C80.1,54,79.1,53.3,79.1,52.3z M81.2,51.3c-0.8,0-1.4,0.5-1.4,1c0,0.6,0.6,1,1.4,1c0.8,0,1.4-0.5,1.4-1l0-1.1
					c-0.1,0-0.2,0-0.2,0L81.2,51.3z"/>
				<path class="st1" d="M84.6,54l0-0.5l3.6-4.5l-3.4,0l0-0.7l4.4,0l0,0.5l-3.6,4.5l3.4,0l0,0.7L84.6,54z"/>
				<path class="st1" d="M94.1,48.3l0,5.9c0,0.9-0.9,1.7-2,1.7c-0.7,0-1.4-0.3-1.9-1l0.5-0.4c0.3,0.5,0.9,0.8,1.3,0.8
					c0.7,0,1.3-0.5,1.3-1c0-0.2,0-0.3-0.3-0.3h-0.4c-1.5,0-2.8-1.3-2.8-2.8c0-1.5,1.3-2.8,2.8-2.8L94.1,48.3z M93.4,53.3l0-4.3h-0.7
					c-1.2,0-2.1,1-2.1,2.1c0,1.2,1,2.1,2.1,2.1h0.4C93.2,53.3,93.4,53.3,93.4,53.3z"/>
				<path class="st1" d="M95.3,51.2c0-1.6,1.1-2.8,2.5-2.8c1.5,0,2.5,1.4,2.5,2.9c0,1.6-1.1,2.9-2.5,2.9
					C96.3,54,95.3,52.6,95.3,51.2z M96,51.2c0,1.2,0.8,2.2,1.8,2.2c1,0,1.8-1,1.8-2.2c0-1.2-0.8-2.2-1.8-2.2
					C96.8,49,96,49.9,96,51.2z"/>
				<path class="st1" d="M104.6,51.2c0-1.5,1.3-2.8,2.8-2.8h0.4c0.3,0,0.3-0.2,0.3-0.2l0-1.8h0.7l0,7.7l-1.4,0
					C106,54,104.6,52.8,104.6,51.2z M108.1,49.1c-0.1,0-0.2,0-0.3,0h-0.4c-1.2,0-2.1,1-2.1,2.1c0,1.2,1,2.1,2.1,2.1h0.7L108.1,49.1
					L108.1,49.1z"/>
				<path class="st1" d="M110.2,51.3c0-1.6,1-2.9,2.4-2.9c1.1,0,1.8,0.6,1.8,1.4c0,0.9-0.9,1.5-2.1,1.5l-1.3,0
					c-0.2,0-0.2,0.2-0.2,0.2c0,0.8,0.8,1.8,1.7,1.8c0.6,0,1-0.2,1.4-0.8l0.5,0.4c-0.5,0.6-1,1.1-2,1.1
					C111.1,54,110.2,52.7,110.2,51.3z M110.9,50.6c0.1,0,0.1,0,0.2,0l1.3,0c0.8,0,1.4-0.4,1.4-0.9c0-0.3-0.3-0.8-1.2-0.8
					C111.8,49,111.1,49.7,110.9,50.6z"/>
				<path class="st1" d="M118.9,46.4h0.7l0,7.7h-0.7L118.9,46.4z"/>
				<path class="st1" d="M120.9,52.3c0-1,1-1.7,2.1-1.7c0,0,1,0,1.2,0c0,0,0.2,0,0.2-0.3l0-0.3c0-0.6-0.6-1-1.3-1
					c-0.5,0-0.9,0.2-1.1,0.5l-0.2,0.3l-0.5-0.4l0.2-0.3c0.4-0.5,1-0.8,1.7-0.8c1.1,0,2,0.8,2,1.7l0,2.3c0,1-1,1.7-2.1,1.7
					C121.9,54,120.9,53.3,120.9,52.3z M123,51.3c-0.8,0-1.4,0.5-1.4,1c0,0.6,0.6,1,1.4,1c0.8,0,1.4-0.5,1.4-1l0-1.1
					c-0.1,0-0.2,0-0.2,0L123,51.3z"/>
				<path class="st1" d="M126.1,53l0.5-0.4c0.4,0.5,0.6,0.8,1.6,0.8c0.8,0,1.3-0.4,1.3-1c0-0.6-0.6-0.7-1.4-0.9
					c-1-0.3-1.9-0.6-1.9-1.6c0-0.9,0.7-1.5,1.8-1.5c0.7,0,1.3,0.2,1.9,1l-0.5,0.4c-0.5-0.7-1-0.8-1.4-0.8c-0.7,0-1.1,0.4-1.1,0.9
					c0,0.6,0.6,0.8,1.4,0.9c1,0.2,1.9,0.6,1.9,1.6c0,1-0.8,1.7-2,1.7C127.1,54,126.6,53.6,126.1,53z"/>
				<path class="st1" d="M140.7,46.4l0,7.7l-0.7,0l0-5.7L138,54l-0.6,0l-2.1-5.7l0,5.7l-0.7,0l0-7.7l0.6,0l2.4,6.6l2.4-6.6
					L140.7,46.4z"/>
				<path class="st1" d="M142.4,51.8l0-3.5h0.7l0,3.5c0,0.8,0.6,1.5,1.4,1.5c0.8,0,1.4-0.7,1.4-1.5l0-3.5l0.7,0l0,3.5
					c0,1.2-0.9,2.2-2.1,2.2C143.3,54,142.4,53.1,142.4,51.8z"/>
				<path class="st1" d="M148.9,48.3h0.7l0,5.5c0,1.2-0.9,2.2-2.1,2.2h-0.3l0-0.7h0.3c0.8,0,1.4-0.7,1.4-1.5L148.9,48.3z
					 M149.3,46.4c0.3,0,0.5,0.2,0.5,0.5c0,0.3-0.2,0.5-0.5,0.5c-0.3,0-0.5-0.2-0.5-0.5C148.8,46.6,149,46.4,149.3,46.4z"/>
				<path class="st1" d="M151.2,51.3c0-1.6,1-2.9,2.4-2.9c1.1,0,1.8,0.6,1.8,1.4c0,0.9-0.9,1.5-2.1,1.5l-1.3,0
					c-0.2,0-0.2,0.2-0.2,0.2c0,0.8,0.8,1.8,1.7,1.8c0.6,0,1-0.2,1.4-0.8l0.5,0.4c-0.5,0.6-1,1.1-2,1.1
					C152.1,54,151.2,52.7,151.2,51.3z M151.9,50.6c0.1,0,0.1,0,0.2,0l1.3,0c0.8,0,1.4-0.4,1.4-0.9c0-0.3-0.3-0.8-1.2-0.8
					C152.8,49,152.1,49.7,151.9,50.6z"/>
				<path class="st1" d="M156.8,54l0-3.5c0-1.2,0.9-2.2,2.1-2.2h0.1l0,0.7h-0.1c-0.8,0-1.4,0.7-1.4,1.5l0,3.5H156.8z"/>
				<path class="st1" d="M159.7,51.3c0-1.6,1-2.9,2.4-2.9c1.1,0,1.8,0.6,1.8,1.4c0,0.9-0.9,1.5-2.1,1.5l-1.3,0
					c-0.2,0-0.2,0.2-0.2,0.2c0,0.8,0.8,1.8,1.7,1.8c0.6,0,1-0.2,1.4-0.8l0.5,0.4c-0.5,0.6-1,1.1-2,1.1
					C160.7,54,159.7,52.7,159.7,51.3z M160.4,50.6c0.1,0,0.1,0,0.2,0l1.3,0c0.8,0,1.4-0.4,1.4-0.9c0-0.3-0.3-0.8-1.2-0.8
					C161.3,49,160.6,49.7,160.4,50.6z"/>
				<path class="st1" d="M164.9,53l0.5-0.4c0.4,0.5,0.6,0.8,1.6,0.8c0.8,0,1.3-0.4,1.3-1c0-0.6-0.6-0.7-1.4-0.9
					c-1-0.3-1.9-0.6-1.9-1.6c0-0.9,0.7-1.5,1.8-1.5c0.7,0,1.3,0.2,1.9,1l-0.5,0.4c-0.5-0.7-1-0.8-1.4-0.8c-0.7,0-1.1,0.4-1.1,0.9
					c0,0.6,0.6,0.8,1.4,0.9c1,0.2,1.9,0.6,1.9,1.6c0,1-0.8,1.7-2,1.7C165.9,54,165.4,53.7,164.9,53z"/>
			</g>
		</g>
		<g>
			<g>
				<g>
					<path class="st2" d="M94.2,12.2l-0.4-1.1c-1.2,0.5-2.4,1.3-3.4,2.3l0.8,0.8C92,13.4,93,12.7,94.2,12.2z"/>
					<path class="st3" d="M88.2,22h-1.2c0.1,1.2,0.3,2.3,0.7,3.4l1.1-0.4C88.5,24,88.3,23,88.2,22z"/>
					<path class="st4" d="M88.2,21.3c0-1.2,0.2-2.3,0.6-3.3l-1.1-0.5c-0.4,1.2-0.7,2.5-0.7,3.8c0,0,0,0,0,0L88.2,21.3
						C88.2,21.4,88.2,21.4,88.2,21.3z"/>
					<path class="st3" d="M101.9,12.1l0.5-1.1c-1.2-0.5-2.5-0.8-3.9-0.8v1.1C99.7,11.4,100.8,11.7,101.9,12.1z"/>
					<path class="st5" d="M108.7,17.9l-1.1,0.4c0.3,1,0.5,2,0.5,3c0,0,0,0,0,0h1.1c0,0,0,0,0,0C109.3,20.2,109.1,19,108.7,17.9z"/>
					<path class="st6" d="M105.2,28.3l0.8,0.8c0.9-0.9,1.6-1.8,2.1-2.9l-1.1-0.5C106.6,26.7,106,27.6,105.2,28.3z"/>
					<path class="st7" d="M91.5,28.7l-0.8,0.8c0.9,0.8,1.9,1.5,3,1.9l0.5-1.1C93.2,30,92.3,29.4,91.5,28.7z"/>
					<path class="st5" d="M98.5,31.3v1.1c1.2,0,2.3-0.2,3.3-0.6l-0.4-1.1C100.5,31.1,99.5,31.3,98.5,31.3z"/>
					<path class="st8" d="M107.4,17.8l1.1-0.4c-0.5-1.3-1.2-2.4-2.1-3.4l-0.8,0.8C106.4,15.6,107,16.6,107.4,17.8z"/>
					<path class="st7" d="M109.2,17.1l1.2-0.5c-0.6-1.5-1.5-2.9-2.6-4.1l-0.9,0.9C107.9,14.5,108.6,15.7,109.2,17.1z"/>
					<path class="st6" d="M86.4,21.3c0-1.4,0.2-2.8,0.7-4.1l-1.2-0.5c-0.5,1.4-0.8,3-0.8,4.6c0,0,0,0,0,0L86.4,21.3
						C86.4,21.4,86.4,21.4,86.4,21.3z"/>
					<path class="st7" d="M93.5,10.5L93,9.3c-1.5,0.7-2.9,1.6-4.1,2.8l0.9,0.9C90.9,11.9,92.2,11.1,93.5,10.5z"/>
					<path class="st9" d="M87.4,26.2l-1.2,0.5c0.7,1.5,1.6,2.8,2.7,3.9l0.9-0.9C88.8,28.6,88,27.5,87.4,26.2z"/>
					<path class="st10" d="M97.9,9.6V8.2c-1.5,0-3,0.3-4.3,0.8l0.5,1.2C95.3,9.9,96.5,9.6,97.9,9.6z"/>
					<path class="st6" d="M102.6,10.4l0.5-1.2c-1.5-0.6-3-0.9-4.7-1v1.3C99.9,9.6,101.3,9.9,102.6,10.4z"/>
					<path class="st4" d="M102.6,32.3l0.5,1.2c1.5-0.6,2.8-1.5,4-2.5l-0.9-0.9C105.1,31,103.9,31.8,102.6,32.3z"/>
					<path class="st11" d="M106.5,13l0.9-0.9c-1.1-1.1-2.3-1.9-3.7-2.6l-0.5,1.2C104.4,11.2,105.5,12,106.5,13z"/>
					<path class="st12" d="M106.5,29.6l0.9,0.9c1-1,1.9-2.2,2.5-3.5l-1.2-0.5C108.2,27.7,107.5,28.7,106.5,29.6z"/>
					<path class="st10" d="M109.9,22c-0.1,1.4-0.4,2.7-0.9,4l1.2,0.5c0.6-1.4,1-2.9,1-4.5H109.9z"/>
					<path class="st13" d="M93.9,32.4l-0.5,1.2c1.4,0.5,2.9,0.8,4.4,0.9v-1.3C96.5,33.1,95.2,32.8,93.9,32.4z"/>
					<path class="st6" d="M90.2,30L89.3,31c1.1,1,2.3,1.8,3.6,2.4l0.5-1.2C92.2,31.6,91.2,30.9,90.2,30z"/>
					<path class="st1" d="M98.5,33.1v1.3c1.4,0,2.8-0.3,4.1-0.7l-0.5-1.2C100.9,32.9,99.7,33.1,98.5,33.1z"/>
					<path class="st14" d="M86.4,22h-1.3c0.1,1.5,0.4,2.9,0.9,4.1l1.2-0.5C86.7,24.5,86.5,23.3,86.4,22z"/>
				</g>
			</g>
			<linearGradient id="SVGID_1_" gradientUnits="userSpaceOnUse" x1="102.0148" y1="21.495" x2="102.0148" y2="11.3072">
				<stop  offset="0" style="stop-color:#FFFFFF"/>
				<stop  offset="7.359984e-02" style="stop-color:#FFFAF8"/>
				<stop  offset="0.1772" style="stop-color:#FDECE6"/>
				<stop  offset="0.2985" style="stop-color:#FBD5C8"/>
				<stop  offset="0.4333" style="stop-color:#F8B59E"/>
				<stop  offset="0.5793" style="stop-color:#F48B68"/>
				<stop  offset="0.7313" style="stop-color:#F05A28"/>
			</linearGradient>
			<path class="st15" d="M106,13.5c-0.9-0.9-1.9-1.6-3.1-2.2l-4.8,10.2L106,13.5z"/>
			
				<linearGradient id="SVGID_00000125580986276358217580000016690457551078923163_" gradientUnits="userSpaceOnUse" x1="93.537" y1="22.2923" x2="91.9915" y2="13.5275">
				<stop  offset="0" style="stop-color:#FFFFFF"/>
				<stop  offset="7.292125e-02" style="stop-color:#EDF9F8"/>
				<stop  offset="0.2185" style="stop-color:#C0E9E6"/>
				<stop  offset="0.4231" style="stop-color:#76CFCA"/>
				<stop  offset="0.6769" style="stop-color:#12ACA3"/>
				<stop  offset="0.7198" style="stop-color:#00A69C"/>
			</linearGradient>
			<path style="fill:url(#SVGID_00000125580986276358217580000016690457551078923163_);" d="M98.1,21.5l-8.1-7.6
				c-0.9,0.9-1.5,2-2,3.1C87.9,17,98.1,21.5,98.1,21.5z"/>
			
				<linearGradient id="SVGID_00000155827129038154887310000004485756331474107573_" gradientUnits="userSpaceOnUse" x1="96.139" y1="21.4818" x2="96.139" y2="32.443">
				<stop  offset="0" style="stop-color:#FFFFFF"/>
				<stop  offset="9.465060e-02" style="stop-color:#FDFBFD"/>
				<stop  offset="0.1931" style="stop-color:#F6EEF6"/>
				<stop  offset="0.2933" style="stop-color:#ECDAEB"/>
				<stop  offset="0.3948" style="stop-color:#DDBCDC"/>
				<stop  offset="0.4972" style="stop-color:#C997C8"/>
				<stop  offset="0.6004" style="stop-color:#B269B0"/>
				<stop  offset="0.7024" style="stop-color:#963394"/>
				<stop  offset="0.7239" style="stop-color:#90278E"/>
			</linearGradient>
			<path style="fill:url(#SVGID_00000155827129038154887310000004485756331474107573_);" d="M98.1,21.5l-3.9,10.2
				c1.2,0.4,2.4,0.7,3.7,0.7v-0.2L98.1,21.5z"/>
			
				<linearGradient id="SVGID_00000154416382187420075020000001238357655734338950_" gradientUnits="userSpaceOnUse" x1="108.9776" y1="7.4655" x2="108.9776" y2="18.4267" gradientTransform="matrix(0.7187 0.6954 -0.6954 0.7187 23.4753 -61.1258)">
				<stop  offset="0" style="stop-color:#FFFFFF"/>
				<stop  offset="0.2676" style="stop-color:#F1F3B1"/>
				<stop  offset="0.7313" style="stop-color:#D6DE23"/>
			</linearGradient>
			<path style="fill:url(#SVGID_00000154416382187420075020000001238357655734338950_);" d="M98,21.4L88.1,26
				c0.5,1.1,1.2,2.2,2.1,3.1l0.1-0.1L98,21.4z"/>
			
				<linearGradient id="SVGID_00000126311108926055370180000009379321309109139118_" gradientUnits="userSpaceOnUse" x1="98.0237" y1="23.6204" x2="109.2417" y2="23.6204">
				<stop  offset="0" style="stop-color:#FFFFFF"/>
				<stop  offset="0.7239" style="stop-color:#D91C5C"/>
			</linearGradient>
			<path style="fill:url(#SVGID_00000126311108926055370180000009379321309109139118_);" d="M109.2,22L98,21.5l10.4,4.2
				C108.9,24.5,109.2,23.3,109.2,22z"/>
			
				<linearGradient id="SVGID_00000036973536946241619680000008246912057071917493_" gradientUnits="userSpaceOnUse" x1="96.2256" y1="21.4796" x2="96.2256" y2="10.2568">
				<stop  offset="0" style="stop-color:#FFFFFF"/>
				<stop  offset="8.366156e-02" style="stop-color:#F8FDFF"/>
				<stop  offset="0.2013" style="stop-color:#E6F7FD"/>
				<stop  offset="0.3391" style="stop-color:#C8EEFC"/>
				<stop  offset="0.4922" style="stop-color:#9EE1F9"/>
				<stop  offset="0.656" style="stop-color:#69D0F6"/>
				<stop  offset="0.7313" style="stop-color:#4EC8F4"/>
			</linearGradient>
			<path style="fill:url(#SVGID_00000036973536946241619680000008246912057071917493_);" d="M98.2,21.5l-0.3-11.2
				c-1.2,0-2.4,0.3-3.6,0.7L98.2,21.5z"/>
			
				<linearGradient id="SVGID_00000165953404835691956650000017871802313437768331_" gradientUnits="userSpaceOnUse" x1="97.9677" y1="26.5902" x2="105.625" y2="26.5902">
				<stop  offset="0" style="stop-color:#FFFFFF"/>
				<stop  offset="0.7239" style="stop-color:#FBB040"/>
			</linearGradient>
			<path style="fill:url(#SVGID_00000165953404835691956650000017871802313437768331_);" d="M98,21.5l4.4,10.1
				c1.2-0.5,2.3-1.2,3.3-2.1L98,21.5z"/>
		</g>
	</g>
	<g>
		<g>
			<path class="st0" d="M16.4,38h0.5v5.6h-0.5V38z"/>
			<path class="st0" d="M29.1,38v5.6h-0.7L26,39v4.6h-0.5V38H26l2.7,4.9V38H29.1z"/>
			<path class="st0" d="M41.2,38.4h-1.9v5.1h-0.5v-5.1H37V38h4.2V38.4z"/>
			<path class="st0" d="M49.1,43.5V38h3.4v0.5h-2.9v2c0,0,0.1,0,0.2,0h2.7v0.5h-2.7c-0.1,0-0.2,0-0.2,0.1c0,0,0,0.1,0,0.1v2.1h2.9
				v0.5H49.1z"/>
			<path class="st0" d="M63.8,43.5l-1.1-2.5c-0.1-0.3-0.3-0.2-0.4-0.2h-1.2c-0.2,0-0.2,0.1-0.2,0.1v2.6h-0.5V38h2.3
				c0.8,0,1.4,0.7,1.4,1.4c0,0.7-0.5,1.3-1.1,1.4c0,0,0.1,0,0.2,0.3l1.1,2.5H63.8z M61.1,40.4h1.6c0.5,0,1-0.4,1-1c0-0.5-0.4-1-1-1
				h-1.8v1.9C61,40.4,61,40.4,61.1,40.4z"/>
			<path class="st0" d="M72,43.5l2-5.6h0.4l1.9,5.6h-0.5l-0.7-2.1c-0.1,0-0.3,0.1-0.5,0.1h-1c-0.4,0-0.5,0.2-0.5,0.3l-0.6,1.8H72z
				 M73.3,41.1c0.1,0,0.1,0,0.2,0h1c0.2,0,0.3,0,0.3,0l-0.8-2.2L73.3,41.1z"/>
			<path class="st0" d="M88.6,38v5.6h-0.5v-4.1l-1.5,4.1h-0.5l-1.5-4.1v4.1h-0.5V38h0.5l1.8,4.8l1.8-4.8H88.6z"/>
			<path class="st0" d="M96.7,43.5V38h3.4v0.5h-2.9v2c0,0,0.1,0,0.2,0h2.7v0.5h-2.7c-0.1,0-0.2,0-0.2,0.1c0,0,0,0.1,0,0.1v2.1h2.9
				v0.5H96.7z"/>
			<path class="st0" d="M111.5,43.5l-1.1-2.5c-0.1-0.3-0.3-0.2-0.4-0.2h-1.2c-0.2,0-0.2,0.1-0.2,0.1v2.6h-0.5V38h2.3
				c0.8,0,1.4,0.7,1.4,1.4c0,0.7-0.5,1.3-1.1,1.4c0,0,0.1,0,0.2,0.3l1.1,2.5H111.5z M108.8,40.4h1.6c0.5,0,1-0.4,1-1
				c0-0.5-0.4-1-1-1h-1.8v1.9C108.6,40.4,108.7,40.4,108.8,40.4z"/>
			<path class="st0" d="M120,38h0.5v5.6H120V38z"/>
			<path class="st0" d="M128.6,40.8c0-1.5,1-2.8,2.3-2.8c0.7,0,1.4,0.4,2,1.3l-0.4,0.3c-0.5-0.8-1-1.1-1.5-1.1c-1,0-1.8,1-1.8,2.3
				c0,1.3,0.8,2.3,1.8,2.3c0.5,0,1.1-0.3,1.5-1.1l0.4,0.3c-0.5,0.9-1.2,1.3-2,1.3C129.5,43.6,128.6,42.2,128.6,40.8z"/>
			<path class="st0" d="M140.5,43.5l2-5.6h0.4l1.9,5.6h-0.5l-0.7-2.1c-0.1,0-0.3,0.1-0.5,0.1h-1c-0.4,0-0.5,0.2-0.5,0.3l-0.6,1.8
				H140.5z M141.9,41.1c0.1,0,0.1,0,0.2,0h1c0.2,0,0.3,0,0.3,0l-0.8-2.2L141.9,41.1z"/>
			<path class="st0" d="M156.3,38v5.6h-0.7l-2.5-4.6v4.6h-0.5V38h0.5l2.7,4.9V38H156.3z"/>
			<path class="st0" d="M164.3,40.8c0-1.5,1-2.8,2.3-2.8c1.4,0,2.3,1.4,2.3,2.8c0,1.5-1,2.8-2.3,2.8
				C165.2,43.5,164.3,42.2,164.3,40.8z M164.7,40.8c0,1.3,0.8,2.3,1.8,2.3c1,0,1.8-1,1.8-2.3c0-1.3-0.8-2.3-1.8-2.3
				C165.6,38.5,164.7,39.5,164.7,40.8z"/>
		</g>
	</g>
</g>
<path class="st22" d="M362.5,85.7"/>
<path class="st22" d="M-193.6,85.7"/>
</svg>
