<?xml version="1.0" encoding="UTF-8"?><svg id="Layer_1" xmlns="http://www.w3.org/2000/svg" viewBox="0 0 500 500" preserveAspectRatio="none"><defs><style>.cls-1{fill:#a496e0;}</style></defs><path class="cls-1" d="M466.55,0H0V500H500V0h-33.45ZM50.74,129.89c9.62-16.71,26.06-25.55,38.98-38.62,11.25-9.81,17.55-24.13,24.6-37.46C148.35,4.57,180.6-5.07,232.12,13.98c27.25,6.96,55.63,1.21,82.59-5.91,22.38-7.68,46.32-7.69,67.6,3.08,53.5,27.23,31.72,69.44,56.84,113.51,20.4,37.11,56.71,74.98,39.5,122.61-13.87,38.82-39.98,70.35-54.11,109.06-20.37,51.75-26.44,110.89-83.35,128.59-35.73,13.91-76.37,10.67-109.42-8.66-19.1-11-35.18-27.34-53.62-39.62-31.49-22.8-74.53-18.95-102.8-47.99-16.18-16.7-20.97-42.99-22.93-66.66-.33-13.53,1.15-27.2-.42-40.67-3.14-30.88-20.58-56.67-27.09-86.28-1.81-24.69,13.15-46.1,25.81-65.16Z"/></svg>