<?xml version="1.0" encoding="UTF-8"?><svg id="Layer_1" xmlns="http://www.w3.org/2000/svg" viewBox="0 0 500 500" preserveAspectRatio="none"><defs><style>.cls-1{fill:#a18ee0;}</style></defs><path class="cls-1" d="M83.35,188.24c6.41-12.51,18.74-19.84,28.01-29.97,8.18-7.7,12.14-18.3,16.76-28.24,23.36-37.23,48.09-46.13,90-35.81,21.95,3.24,43.89-2.65,64.63-9.42,17.09-6.88,35.95-8.4,53.46-2.07,44.04,16.02,29.82,47.46,52.68,77.27,18.66,25.15,49.89,49.83,39.66,84.85-8.21,28.53-26.58,52.64-35.01,81.1-12.43,38.15-13.09,80.67-56.68,96.87-27.17,12.17-59.4,12.42-86.78,.74-15.81-6.63-29.61-17.25-44.99-24.84-26.39-14.25-60.02-8.8-84.31-27.7-13.91-10.88-19.51-29.3-22.71-46.04-1.21-9.62-.99-19.45-3.17-28.95-4.63-21.8-20.16-39.07-27.35-59.76-3.15-17.48,7.14-33.67,15.78-48.05Z"/></svg>