<?xml version="1.0" encoding="utf-8"?>
<!-- Generator: Adobe Illustrator 26.3.1, SVG Export Plug-In . SVG Version: 6.00 Build 0)  -->
<svg version="1.1" id="Layer_1" xmlns="http://www.w3.org/2000/svg" xmlns:xlink="http://www.w3.org/1999/xlink" x="0px" y="0px"
	 viewBox="0 0 185 63" style="enable-background:new 0 0 185 63;" xml:space="preserve">
<style type="text/css">
	.st0{fill:none;stroke:#662D91;stroke-miterlimit:10;}
	.st1{fill:#662D91;}
	.st2{fill:#6D6E70;}
	.st3{fill:#58595B;}
	.st4{fill:#A6A8AB;}
	.st5{fill:#29B473;}
	.st6{fill:#D0D2D3;}
	.st7{fill:#231F20;}
	.st8{fill:#BBBDBF;}
	.st9{fill:#808184;}
	.st10{fill:#D6DE23;}
	.st11{fill:#929497;}
	.st12{fill:#F05A28;}
	.st13{fill:#FBB040;}
	.st14{fill:#90278E;}
	.st15{fill:none;}
	.st16{fill:url(#SVGID_1_);}
	.st17{fill:url(#SVGID_00000060739383611655872610000001941312670697702297_);}
	.st18{fill:url(#SVGID_00000154395560472734561710000007538789494910822806_);}
	.st19{fill:url(#SVGID_00000145041920579934167620000004521046968851478974_);}
	.st20{fill:url(#SVGID_00000168097813596880302730000011201502150422654650_);}
	.st21{fill:url(#SVGID_00000031198514642150974590000007452515013083495042_);}
	.st22{fill:url(#SVGID_00000049910071693671759880000003898364117385425327_);}
</style>
<path class="st0" d="M362.5,85.7"/>
<path class="st0" d="M-193.6,85.7"/>
<g>
	<path class="st1" d="M168.9,20.7v-3.5h-17.3v22.5h-8.8c-2.6,0-4.9-0.9-6.7-2.8c-1.9-1.9-2.8-4.1-2.8-6.7c0-2.6,0.9-4.8,2.8-6.7
		c1.9-1.9,4.1-2.8,6.7-2.8c1.8,0,3.5,0.5,5,1.4c0.6,0.4,1.2,0.8,1.7,1.3v-4.4c-2-1.2-4.3-1.9-6.7-1.9c-3.6,0-6.6,1.3-9.2,3.8
		c-2.5,2.5-3.8,5.6-3.8,9.2c0,3.6,1.3,6.6,3.8,9.2c2.5,2.5,5.6,3.8,9.2,3.8h8.8h4.1h13.1v-3.4h-13.1H155v-8.6h13.8v-3.5H155v-6.9
		H168.9z"/>
	<path class="st1" d="M82.8,29.8c0-0.8,0.1-1.5,0.2-2.2h-7.3v-6.9h10.2c1-1.3,2.2-2.5,3.6-3.4v0H72.2v25.9h3.4V31.1h7.2
		C82.9,30.7,82.8,30.3,82.8,29.8z"/>
	<path class="st1" d="M127.3,31.7c1.5-1.6,2.2-3.6,2.2-5.8c0-2.4-0.8-4.4-2.5-6.1c-1.7-1.7-3.7-2.5-6.1-2.5h-8.6v7.8
		c0.5,1.5,0.8,3.1,0.8,4.8c0,1.7-0.3,3.3-0.8,4.8v8.6h3.4V32.8c0.2,0.2,0.5,0.3,0.7,0.5l8.6,9.9h4.5l-7.7-8.7
		C124,34.3,125.8,33.3,127.3,31.7z M117.2,29.6c-1-1-1.5-2.2-1.5-3.7v-5.2h5.2c1.4,0,2.6,0.5,3.7,1.5c1,1,1.5,2.2,1.5,3.7
		s-0.5,2.6-1.5,3.7c-1,1-2.2,1.5-3.7,1.5C119.5,31.1,118.3,30.6,117.2,29.6z"/>
	<path class="st2" d="M23.5,40.8h0.3v2.4h-0.3c-4.1,0-7.4-3.6-7.4-7.9V15.7h2.4v7.5c0.3-0.1,0.7-0.1,1.1-0.1h4.3v2.4h-4.3
		c-1.1,0-1.1,0.5-1.1,0.8v9.1C18.5,38.4,20.7,40.8,23.5,40.8z"/>
	<path class="st2" d="M24.3,37.1c0-3.5,3.4-6.2,7.4-6.2c0,0,3.7,0,4.2,0c0.1,0,0.8,0,0.8-0.9v-1.1c0-2-2.1-3.7-4.7-3.7
		c-1.7,0-3.2,0.7-4.1,1.8l-0.7,1l-1.9-1.4l0.7-1c1.3-1.8,3.6-2.8,6-2.8c3.8,0,7.1,2.8,7.1,6.2v8.2c0,3.5-3.4,6.1-7.4,6.1
		S24.3,40.5,24.3,37.1z M31.6,33.4c-2.7,0-5,1.7-5,3.7c0,2,2.3,3.7,5,3.7c2.7,0,5-1.7,5-3.7v-3.8c-0.4,0.1-0.8,0.1-0.9,0.1
		L31.6,33.4z"/>
	<path class="st2" d="M39.7,39.5l1.9-1.5c1.5,1.9,2.3,2.8,5.7,2.8c3,0,4.7-1.4,4.7-3.6c0-2.1-2.3-2.6-4.9-3.3
		c-3.7-0.9-6.7-2.2-6.7-5.7c0-3.3,2.5-5.4,6.4-5.4c2.4,0,4.6,0.8,6.9,3.8L51.8,28c-1.9-2.5-3.5-2.9-5.1-2.9c-2.4,0-3.8,1.3-3.8,3.1
		c0,2.1,2.3,2.7,4.9,3.4c3.6,0.9,6.7,2.1,6.7,5.6c0,3.5-2.8,6.1-7.1,6.1C43.2,43.2,41.5,41.8,39.7,39.5z"/>
	<path class="st2" d="M61.9,33.7c-0.8-1-1.2-1.1-1.6-0.7l-1.4,1.2v9h-2.4V15.7h2.4v15.5l9.1-8.4h3.7l-9.3,8.3
		c0.2-0.1,0.9,0.4,1.5,1.2l8.3,11h-3.1L61.9,33.7z"/>
	<path class="st1" d="M15.4,7.2h0.5v5.3h-0.5V7.2z"/>
	<path class="st1" d="M28.3,7.2v5.3h-0.6l-2.4-4.4v4.4h-0.5V7.2h0.5l2.5,4.7V7.2H28.3z"/>
	<path class="st1" d="M40.6,7.7h-1.8v4.9h-0.5V7.7h-1.7V7.2h4V7.7z"/>
	<path class="st1" d="M49,12.5V7.2h3.2v0.5h-2.8v1.9c0,0,0.1,0,0.2,0h2.6V10h-2.6c-0.1,0-0.2,0-0.2,0.1c0,0,0,0.1,0,0.1v2h2.8v0.5
		H49z"/>
	<path class="st1" d="M63.9,12.5l-1-2.3C62.7,10,62.5,10,62.5,10h-1.2c-0.2,0-0.2,0.1-0.2,0.1v2.4h-0.5V7.2h2.2
		c0.8,0,1.4,0.6,1.4,1.4c0,0.6-0.5,1.2-1,1.3c0,0,0.1,0,0.2,0.3l1,2.4H63.9z M61.3,9.5h1.6c0.5,0,0.9-0.4,0.9-0.9
		c0-0.5-0.4-0.9-0.9-0.9h-1.7v1.9C61.1,9.5,61.2,9.5,61.3,9.5z"/>
	<path class="st1" d="M72.6,10.3h2v0.5h-2V10.3z"/>
	<path class="st1" d="M82.7,12.5l1.9-5.3H85l1.9,5.3h-0.5l-0.7-2c-0.1,0-0.3,0.1-0.4,0.1h-1c-0.4,0-0.5,0.2-0.5,0.2l-0.6,1.7H82.7z
		 M84,10.2c0.1,0,0.1,0,0.2,0h1c0.2,0,0.2,0,0.3,0L84.8,8L84,10.2z"/>
	<path class="st1" d="M99.4,7.2v5.3H99v-4l-1.4,4h-0.4l-1.4-4v4h-0.5V7.2h0.5l1.7,4.6L99,7.2H99.4z"/>
	<path class="st1" d="M108,12.5V7.2h3.2v0.5h-2.8v1.9c0,0,0.1,0,0.2,0h2.6V10h-2.6c-0.1,0-0.2,0-0.2,0.1c0,0,0,0.1,0,0.1v2h2.8v0.5
		H108z"/>
	<path class="st1" d="M122.9,12.5l-1-2.3c-0.1-0.2-0.3-0.2-0.3-0.2h-1.2c-0.2,0-0.2,0.1-0.2,0.1v2.4h-0.5V7.2h2.2
		c0.8,0,1.4,0.6,1.4,1.4c0,0.6-0.5,1.2-1.1,1.3c0,0,0.1,0,0.2,0.3l1,2.4H122.9z M120.3,9.5h1.6c0.5,0,0.9-0.4,0.9-0.9
		c0-0.5-0.4-0.9-0.9-0.9h-1.7v1.9C120.2,9.5,120.2,9.5,120.3,9.5z"/>
	<path class="st1" d="M131.9,7.2h0.5v5.3h-0.5V7.2z"/>
	<path class="st1" d="M140.9,9.9c0-1.4,1-2.7,2.2-2.7c0.7,0,1.3,0.4,1.9,1.3l-0.4,0.2c-0.4-0.7-1-1-1.5-1c-0.9,0-1.7,1-1.7,2.2
		s0.8,2.2,1.7,2.2c0.5,0,1-0.3,1.5-1l0.4,0.2c-0.5,0.9-1.2,1.3-1.9,1.3C141.7,12.6,140.9,11.2,140.9,9.9z"/>
	<path class="st1" d="M153,12.5l1.9-5.3h0.4l1.9,5.3h-0.5l-0.7-2c-0.1,0-0.3,0.1-0.4,0.1h-1c-0.4,0-0.5,0.2-0.5,0.2l-0.6,1.7H153z
		 M154.3,10.2c0.1,0,0.1,0,0.2,0h1c0.2,0,0.2,0,0.3,0L155.1,8L154.3,10.2z"/>
	<path class="st1" d="M168.9,7.2v5.3h-0.6l-2.4-4.4v4.4h-0.5V7.2h0.5l2.5,4.7V7.2H168.9z"/>
	<path class="st1" d="M61.2,50.7c0-2.1,1.4-3.8,3.1-3.8c1.9,0,3.1,1.9,3.1,3.8c0,2.1-1.4,3.8-3.1,3.8C62.4,54.5,61.2,52.6,61.2,50.7
		z M61.9,50.7c0,1.8,1.1,3.2,2.5,3.2c1.3,0,2.5-1.4,2.5-3.2c0-1.8-1.1-3.2-2.5-3.2C63,47.5,61.9,48.9,61.9,50.7z"/>
	<path class="st1" d="M72.1,54.5l0-3.5c0-0.9-0.6-1.5-1.4-1.5c-0.8,0-1.4,0.7-1.4,1.5l0,3.5h-0.7l0-3.5c0-1.2,0.9-2.2,2.1-2.2
		c1.1,0,2.1,1,2.1,2.2l0,3.5L72.1,54.5z"/>
	<path class="st2" d="M86.1,46.8l-2.7,7.7h-0.6l-1.5-5.4l-1.5,5.4l-0.6,0l-2.7-7.7l0.7,0l2.2,6.4l1.6-5.7h0.5l1.6,5.7l2.3-6.4H86.1z
		"/>
	<path class="st2" d="M86.1,51.6c0-1.6,1.1-2.9,2.5-2.9c1.5,0,2.5,1.4,2.5,2.9c0,1.6-1.1,2.9-2.5,2.9C87.1,54.5,86.1,53.1,86.1,51.6
		z M86.8,51.6c0,1.2,0.8,2.2,1.8,2.2c1,0,1.8-1,1.8-2.2c0-1.2-0.8-2.2-1.8-2.2C87.6,49.4,86.8,50.4,86.8,51.6z"/>
	<path class="st2" d="M99.8,51l0,3.5h-0.7l0-3.5c0-0.9-0.6-1.5-1.4-1.5c-0.8,0-1.4,0.7-1.4,1.5l0,3.5h-0.7l0-3.5
		c0-0.9-0.6-1.5-1.4-1.5c-0.8,0-1.4,0.7-1.4,1.5l0,3.5l-0.7,0l0-3.5c0-1.2,0.9-2.2,2.1-2.2c0.7,0,1.4,0.4,1.7,1c0.4-0.6,1.1-1,1.7-1
		C98.9,48.8,99.8,49.8,99.8,51z"/>
	<path class="st2" d="M101.2,51.7c0-1.6,1-2.9,2.4-2.9c1.1,0,1.8,0.6,1.8,1.4c0,0.9-0.9,1.5-2.1,1.5l-1.3,0c-0.2,0-0.2,0.2-0.2,0.2
		c0,0.8,0.8,1.8,1.7,1.8c0.6,0,1-0.2,1.4-0.8l0.5,0.4c-0.5,0.6-1,1.1-2,1.1C102.2,54.5,101.2,53.2,101.2,51.7z M101.9,51.1
		c0.1,0,0.1,0,0.2,0l1.3,0c0.8,0,1.4-0.4,1.4-0.9c0-0.3-0.3-0.8-1.2-0.8C102.8,49.4,102.1,50.1,101.9,51.1z"/>
	<path class="st2" d="M109.9,54.5l0-3.5c0-0.9-0.6-1.5-1.4-1.5c-0.8,0-1.4,0.7-1.4,1.5l0,3.5l-0.7,0l0-3.5c0-1.2,0.9-2.2,2.1-2.2
		c1.1,0,2.1,1,2.1,2.2l0,3.5H109.9z"/>
	<path class="st2" d="M112,48.5c0.2-0.2,0.2-0.5,0.2-0.9l0-0.8h0.7l0,0.8c0,0.6-0.2,0.9-0.8,1.3L112,48.5z"/>
	<path class="st2" d="M114.1,53.5l0.5-0.4c0.4,0.5,0.6,0.8,1.6,0.8c0.8,0,1.3-0.4,1.3-1c0-0.6-0.6-0.7-1.4-0.9
		c-1-0.3-1.9-0.6-1.9-1.6c0-0.9,0.7-1.5,1.8-1.5c0.7,0,1.3,0.2,1.9,1.1l-0.5,0.4c-0.5-0.7-1-0.8-1.4-0.8c-0.7,0-1.1,0.4-1.1,0.9
		c0,0.6,0.6,0.8,1.4,0.9c1,0.2,1.9,0.6,1.9,1.6c0,1-0.8,1.7-2,1.7C115.1,54.5,114.6,54.1,114.1,53.5z"/>
	<path class="st2" d="M127.2,53.8l0,0.7l-4.9,0l0-7.7h0.7l0,7L127.2,53.8z"/>
	<path class="st2" d="M127.7,51.7c0-1.6,1-2.9,2.4-2.9c1.1,0,1.8,0.6,1.8,1.4c0,0.9-0.9,1.5-2.1,1.5l-1.3,0c-0.2,0-0.2,0.2-0.2,0.2
		c0,0.8,0.8,1.8,1.7,1.8c0.6,0,1-0.2,1.4-0.8l0.5,0.4c-0.5,0.6-1,1.1-2,1.1C128.7,54.5,127.7,53.2,127.7,51.7z M128.4,51.1
		c0.1,0,0.1,0,0.2,0l1.3,0c0.8,0,1.4-0.4,1.4-0.9c0-0.3-0.3-0.8-1.2-0.8C129.3,49.4,128.6,50.1,128.4,51.1z"/>
	<path class="st2" d="M132.9,52.8c0-1,1-1.7,2.1-1.7c0,0,1,0,1.2,0c0,0,0.2,0,0.2-0.3l0-0.3c0-0.6-0.6-1-1.3-1
		c-0.5,0-0.9,0.2-1.1,0.5l-0.2,0.3l-0.5-0.4l0.2-0.3c0.4-0.5,1-0.8,1.7-0.8c1.1,0,2,0.8,2,1.7l0,2.3c0,1-1,1.7-2.1,1.7
		S132.9,53.8,132.9,52.8z M134.9,51.8c-0.8,0-1.4,0.5-1.4,1c0,0.6,0.6,1,1.4,1c0.8,0,1.4-0.5,1.4-1l0-1.1c-0.1,0-0.2,0-0.2,0
		L134.9,51.8z"/>
	<path class="st2" d="M137.9,51.7c0-1.5,1.3-2.8,2.8-2.8h0.4c0.3,0,0.3-0.2,0.3-0.2l0-1.8l0.7,0l0,7.7l-1.4,0
		C139.3,54.5,137.9,53.3,137.9,51.7z M141.4,49.5c-0.1,0-0.2,0-0.3,0h-0.4c-1.2,0-2.2,1-2.2,2.1c0,1.2,1,2.1,2.1,2.1h0.7L141.4,49.5
		L141.4,49.5z"/>
	<path class="st2" d="M143.4,51.7c0-1.6,1-2.9,2.4-2.9c1.1,0,1.8,0.6,1.8,1.4c0,0.9-0.9,1.5-2.1,1.5l-1.3,0c-0.2,0-0.2,0.2-0.2,0.2
		c0,0.8,0.8,1.8,1.7,1.8c0.6,0,1-0.2,1.4-0.8l0.5,0.4c-0.5,0.6-1,1.1-2,1.1C144.3,54.5,143.4,53.2,143.4,51.7z M144.1,51.1
		c0.1,0,0.1,0,0.2,0l1.3,0c0.8,0,1.4-0.4,1.4-0.9c0-0.3-0.3-0.8-1.2-0.8C145,49.5,144.3,50.1,144.1,51.1z"/>
	<path class="st2" d="M148.9,54.5l0-3.5c0-1.2,0.9-2.2,2.1-2.2h0.1l0,0.7H151c-0.8,0-1.4,0.7-1.4,1.5l0,3.5L148.9,54.5z"/>
	<path class="st2" d="M151.7,53.5l0.5-0.4c0.4,0.5,0.6,0.8,1.6,0.8c0.8,0,1.3-0.4,1.3-1c0-0.6-0.6-0.7-1.4-0.9
		c-1-0.3-1.9-0.6-1.9-1.6c0-0.9,0.7-1.5,1.8-1.5c0.7,0,1.3,0.2,1.9,1.1l-0.5,0.4c-0.5-0.7-1-0.8-1.4-0.8c-0.7,0-1.1,0.4-1.1,0.9
		c0,0.6,0.6,0.8,1.4,0.9c1,0.2,1.9,0.6,1.9,1.6c0,1-0.8,1.7-2,1.7C152.6,54.5,152.2,54.1,151.7,53.5z"/>
	<path class="st2" d="M161.2,51.1l0,3.5l-0.7,0l0-3.5c0-0.9-0.6-1.5-1.4-1.5l-1.1,0c0,0-0.1,0-0.2,0l0,5h-0.7l0-7.7h0.7l0,1.7
		c0,0.3,0.2,0.3,0.2,0.3l1.2,0C160.3,48.9,161.2,49.9,161.2,51.1z"/>
	<path class="st2" d="M163.2,46.8c0.3,0,0.5,0.2,0.5,0.5c0,0.3-0.2,0.5-0.5,0.5c-0.3,0-0.5-0.2-0.5-0.5
		C162.7,47.1,162.9,46.8,163.2,46.8z M162.9,48.8l0.7,0l0,5.7l-0.7,0L162.9,48.8z"/>
	<path class="st2" d="M169.4,51.6c0,1.5-1.3,2.8-2.8,2.8h-0.4c-0.3,0-0.3,0.2-0.3,0.2l0,1.8h-0.7l0-7.7l1.4,0
		C168,48.8,169.4,50,169.4,51.6z M165.9,53.8c0.1,0,0.2,0,0.3,0h0.4c1.2,0,2.2-1,2.2-2.1c0-1.2-1-2.1-2.1-2.1l-0.7,0L165.9,53.8z"/>
	<path class="st3" d="M94,21l-0.4-1.1c-1.3,0.5-2.4,1.3-3.4,2.3l0.8,0.8C91.9,22.2,92.9,21.5,94,21z"/>
	<path class="st4" d="M88,30.8h-1.2c0.1,1.2,0.3,2.3,0.7,3.4l1.1-0.4C88.3,32.9,88.1,31.8,88,30.8z"/>
	<path class="st5" d="M88,30.2c0-1.2,0.2-2.3,0.6-3.3l-1.1-0.5c-0.4,1.2-0.7,2.5-0.7,3.8c0,0,0,0,0,0L88,30.2
		C88,30.2,88,30.2,88,30.2z"/>
	<path class="st4" d="M101.7,20.9l0.5-1.1c-1.2-0.5-2.5-0.8-3.9-0.8v1.2C99.5,20.2,100.7,20.5,101.7,20.9z"/>
	<path class="st6" d="M108.6,26.7l-1.1,0.4c0.3,1,0.5,2,0.5,3c0,0,0,0,0,0h1.2c0,0,0,0,0,0C109.1,29,108.9,27.8,108.6,26.7z"/>
	<path class="st7" d="M105.1,37.2l0.8,0.8c0.9-0.9,1.6-1.9,2.1-2.9l-1.1-0.5C106.4,35.6,105.8,36.4,105.1,37.2z"/>
	<path class="st8" d="M91.3,37.6l-0.8,0.8c0.9,0.8,1.9,1.5,3,1.9l0.5-1.1C93,38.8,92.1,38.3,91.3,37.6z"/>
	<path class="st6" d="M98.3,40.1v1.2c1.2,0,2.3-0.2,3.4-0.6l-0.4-1.1C100.3,39.9,99.3,40.1,98.3,40.1z"/>
	<path class="st9" d="M107.3,26.6l1.1-0.4c-0.5-1.3-1.2-2.4-2.1-3.5l-0.8,0.8C106.2,24.4,106.8,25.4,107.3,26.6z"/>
	<path class="st8" d="M109,25.9l1.2-0.5c-0.6-1.5-1.5-3-2.6-4.2l-0.9,0.9C107.7,23.3,108.5,24.5,109,25.9z"/>
	<path class="st7" d="M86.2,30.2c0-1.4,0.2-2.8,0.7-4.1l-1.2-0.5c-0.5,1.4-0.8,3-0.8,4.6c0,0,0,0,0,0L86.2,30.2
		C86.2,30.2,86.2,30.2,86.2,30.2z"/>
	<path class="st8" d="M93.3,19.3l-0.5-1.2c-1.5,0.7-2.9,1.6-4.1,2.8l0.9,0.9C90.8,20.7,92,19.9,93.3,19.3z"/>
	<path class="st10" d="M87.2,35L86,35.5c0.7,1.5,1.6,2.8,2.7,3.9l0.9-0.9C88.6,37.4,87.8,36.3,87.2,35z"/>
	<path class="st11" d="M97.7,18.4V17c-1.5,0-3,0.3-4.3,0.8l0.5,1.2C95.1,18.6,96.4,18.4,97.7,18.4z"/>
	<path class="st7" d="M102.5,19.2L103,18c-1.5-0.6-3-0.9-4.7-1v1.3C99.7,18.4,101.2,18.7,102.5,19.2z"/>
	<path class="st5" d="M102.4,41.1l0.5,1.2c1.5-0.6,2.8-1.5,4-2.5l-0.9-0.9C104.9,39.8,103.7,40.6,102.4,41.1z"/>
	<path class="st12" d="M106.3,21.8l0.9-0.9c-1.1-1.1-2.3-1.9-3.7-2.6l-0.5,1.2C104.2,20,105.3,20.8,106.3,21.8z"/>
	<path class="st13" d="M106.4,38.5l0.9,0.9c1-1,1.9-2.2,2.5-3.6l-1.2-0.5C108.1,36.5,107.3,37.5,106.4,38.5z"/>
	<path class="st11" d="M109.8,30.8c-0.1,1.4-0.4,2.7-0.9,4l1.2,0.5c0.6-1.4,1-2.9,1-4.5H109.8z"/>
	<path class="st14" d="M93.8,41.2l-0.5,1.2c1.4,0.5,2.9,0.8,4.5,0.9V42C96.3,41.9,95,41.7,93.8,41.2z"/>
	<path class="st7" d="M90,38.9l-0.9,0.9c1.1,1,2.3,1.8,3.6,2.4l0.5-1.2C92.1,40.5,91,39.7,90,38.9z"/>
	<path class="st2" d="M98.3,42v1.3c1.4,0,2.8-0.3,4.1-0.7l-0.5-1.2C100.7,41.7,99.5,41.9,98.3,42z"/>
	<path class="st15" d="M86.2,30.8h-1.3c0.1,1.5,0.4,2.9,0.9,4.2l1.2-0.5C86.5,33.3,86.3,32.1,86.2,30.8z"/>
	<linearGradient id="SVGID_1_" gradientUnits="userSpaceOnUse" x1="101.8549" y1="30.3012" x2="101.8549" y2="20.0917">
		<stop  offset="0" style="stop-color:#FFFFFF"/>
		<stop  offset="7.359984e-02" style="stop-color:#FFFAF8"/>
		<stop  offset="0.1772" style="stop-color:#FDECE6"/>
		<stop  offset="0.2985" style="stop-color:#FBD5C8"/>
		<stop  offset="0.4333" style="stop-color:#F8B59E"/>
		<stop  offset="0.5793" style="stop-color:#F48B68"/>
		<stop  offset="0.7313" style="stop-color:#F05A28"/>
	</linearGradient>
	<path class="st16" d="M105.8,22.3c-0.9-0.9-2-1.6-3.1-2.2l-4.8,10.2L105.8,22.3z"/>
	
		<linearGradient id="SVGID_00000122712671563236835730000001171881068745846437_" gradientUnits="userSpaceOnUse" x1="93.3591" y1="31.1003" x2="91.8103" y2="22.3167">
		<stop  offset="0" style="stop-color:#FFFFFF"/>
		<stop  offset="7.292125e-02" style="stop-color:#EDF9F8"/>
		<stop  offset="0.2185" style="stop-color:#C0E9E6"/>
		<stop  offset="0.4231" style="stop-color:#76CFCA"/>
		<stop  offset="0.6769" style="stop-color:#12ACA3"/>
		<stop  offset="0.7198" style="stop-color:#00A69C"/>
	</linearGradient>
	<path style="fill:url(#SVGID_00000122712671563236835730000001171881068745846437_);" d="M97.9,30.3l-8.1-7.6c-0.9,0.9-1.5,2-2,3.1
		C87.8,25.8,97.9,30.3,97.9,30.3z"/>
	
		<linearGradient id="SVGID_00000105425049681324460310000013407414385995851667_" gradientUnits="userSpaceOnUse" x1="95.9667" y1="30.288" x2="95.9667" y2="41.2725">
		<stop  offset="0" style="stop-color:#FFFFFF"/>
		<stop  offset="9.465060e-02" style="stop-color:#FDFBFD"/>
		<stop  offset="0.1931" style="stop-color:#F6EEF6"/>
		<stop  offset="0.2933" style="stop-color:#ECDAEB"/>
		<stop  offset="0.3948" style="stop-color:#DDBCDC"/>
		<stop  offset="0.4972" style="stop-color:#C997C8"/>
		<stop  offset="0.6004" style="stop-color:#B269B0"/>
		<stop  offset="0.7024" style="stop-color:#963394"/>
		<stop  offset="0.7239" style="stop-color:#90278E"/>
	</linearGradient>
	<path style="fill:url(#SVGID_00000105425049681324460310000013407414385995851667_);" d="M97.9,30.3L94,40.6
		c1.2,0.4,2.4,0.7,3.7,0.7v-0.2L97.9,30.3z"/>
	
		<linearGradient id="SVGID_00000003082219938609950060000013506208311541917352_" gradientUnits="userSpaceOnUse" x1="114.9757" y1="13.9111" x2="114.9757" y2="24.8957" gradientTransform="matrix(0.7187 0.6954 -0.6954 0.7187 23.4753 -61.1258)">
		<stop  offset="0" style="stop-color:#FFFFFF"/>
		<stop  offset="0.2676" style="stop-color:#F1F3B1"/>
		<stop  offset="0.7313" style="stop-color:#D6DE23"/>
	</linearGradient>
	<path style="fill:url(#SVGID_00000003082219938609950060000013506208311541917352_);" d="M97.8,30.2l-9.9,4.7
		c0.5,1.1,1.2,2.2,2.1,3.1l0.1-0.1L97.8,30.2z"/>
	
		<linearGradient id="SVGID_00000083797205566597295620000014693117817702819769_" gradientUnits="userSpaceOnUse" x1="97.8554" y1="32.4311" x2="109.0972" y2="32.4311">
		<stop  offset="0" style="stop-color:#FFFFFF"/>
		<stop  offset="0.7239" style="stop-color:#D91C5C"/>
	</linearGradient>
	<path style="fill:url(#SVGID_00000083797205566597295620000014693117817702819769_);" d="M109.1,30.8l-11.2-0.4l10.4,4.2
		C108.7,33.3,109,32.1,109.1,30.8z"/>
	
		<linearGradient id="SVGID_00000082353886280279618030000003380248887091561108_" gradientUnits="userSpaceOnUse" x1="96.0534" y1="30.2858" x2="96.0534" y2="19.0391">
		<stop  offset="0" style="stop-color:#FFFFFF"/>
		<stop  offset="8.366156e-02" style="stop-color:#F8FDFF"/>
		<stop  offset="0.2013" style="stop-color:#E6F7FD"/>
		<stop  offset="0.3391" style="stop-color:#C8EEFC"/>
		<stop  offset="0.4922" style="stop-color:#9EE1F9"/>
		<stop  offset="0.656" style="stop-color:#69D0F6"/>
		<stop  offset="0.7313" style="stop-color:#4EC8F4"/>
	</linearGradient>
	<path style="fill:url(#SVGID_00000082353886280279618030000003380248887091561108_);" d="M98,30.3L97.7,19c-1.2,0-2.4,0.3-3.6,0.7
		L98,30.3z"/>
	
		<linearGradient id="SVGID_00000045594129816646171430000011228467466723751069_" gradientUnits="userSpaceOnUse" x1="97.7993" y1="35.4073" x2="105.4729" y2="35.4073">
		<stop  offset="0" style="stop-color:#FFFFFF"/>
		<stop  offset="0.7239" style="stop-color:#FBB040"/>
	</linearGradient>
	<path style="fill:url(#SVGID_00000045594129816646171430000011228467466723751069_);" d="M97.8,30.4l4.4,10.1
		c1.2-0.5,2.3-1.2,3.3-2.1L97.8,30.4z"/>
</g>
</svg>
